<svg xmlns:dc="http://purl.org/dc/elements/1.1/" xmlns:cc="http://creativecommons.org/ns#" xmlns:rdf="http://www.w3.org/1999/02/22-rdf-syntax-ns#" xmlns:svg="http://www.w3.org/2000/svg" xmlns="http://www.w3.org/2000/svg" xmlns:sodipodi="http://sodipodi.sourceforge.net/DTD/sodipodi-0.dtd" xmlns:inkscape="http://www.inkscape.org/namespaces/inkscape" viewBox="0 0 16.933334 21.1666675" version="1.1" x="0px" y="0px"><g transform="translate(148.92261,-136.43571)"><path style="color:#000000;font-style:normal;font-variant:normal;font-weight:normal;font-stretch:normal;font-size:medium;line-height:normal;font-family:sans-serif;font-variant-ligatures:normal;font-variant-position:normal;font-variant-caps:normal;font-variant-numeric:normal;font-variant-alternates:normal;font-feature-settings:normal;text-indent:0;text-align:start;text-decoration:none;text-decoration-line:none;text-decoration-style:solid;text-decoration-color:#000000;letter-spacing:normal;word-spacing:normal;text-transform:none;writing-mode:lr-tb;direction:ltr;text-orientation:mixed;dominant-baseline:auto;baseline-shift:baseline;text-anchor:start;white-space:normal;shape-padding:0;clip-rule:nonzero;display:inline;overflow:visible;visibility:visible;opacity:1;isolation:auto;mix-blend-mode:normal;color-interpolation:sRGB;color-interpolation-filters:linearRGB;solid-color:#000000;solid-opacity:1;vector-effect:none;fill:#000000;fill-opacity:1;fill-rule:nonzero;stroke:none;stroke-width:0.52916658;stroke-linecap:round;stroke-linejoin:round;stroke-miterlimit:4;stroke-dasharray:none;stroke-dashoffset:0;stroke-opacity:1;paint-order:normal;color-rendering:auto;image-rendering:auto;shape-rendering:auto;text-rendering:auto;enable-background:accumulate" d="m -147.83741,138.28726 c -0.15665,0 -0.29145,0.13428 -0.29145,0.29094 v 8.70541 h 15.34583 v -8.70541 c 0,-0.15666 -0.13428,-0.29094 -0.29094,-0.29094 z m 11.51351,1.73426 c 0.40315,0.0693 0.73587,0.12299 0.85163,0.12299 0.1257,0 0.28112,0.10326 0.28112,0.26562 v 5.89886 c 0,0.11757 -0.0883,0.26355 -0.28112,0.26355 -1.35599,-0.0168 -2.60443,-0.8182 -3.99614,-0.69918 -0.35826,0.007 -0.60105,0.0832 -0.72295,0.18293 v -5.89628 c 1.27249,-0.57291 2.61442,-0.33577 3.86746,-0.13849 z m -4.39663,0.13695 v 5.89628 c -0.12308,-0.0989 -0.36629,-0.17448 -0.72243,-0.18138 -1.38129,-0.0168 -2.64904,0.54239 -3.99407,0.69918 -0.185,0.0322 -0.28319,-0.15339 -0.28319,-0.26355 v -5.89887 c 0,-0.0935 0.0859,-0.24201 0.28319,-0.26561 0.11283,-0.0205 0.44796,-0.0537 0.85111,-0.12299 1.3102,-0.24358 2.68073,-0.35796 3.86539,0.13694 z m 1.06454,1.08004 c -0.35487,0.11316 -0.15296,0.64492 0.18758,0.49402 1.30564,-0.49486 3.04271,0.006 3.04271,0.006 0.34436,0.11657 0.50524,-0.4102 0.15451,-0.50592 -1.14505,-0.32044 -2.30804,-0.32601 -3.3848,0.006 z m -4.98419,-0.006 c -0.36327,0.0881 -0.19669,0.63481 0.15399,0.50539 0,0 1.73913,-0.50039 3.04478,-0.006 0.34054,0.15089 0.54245,-0.38087 0.18758,-0.49403 -1.13149,-0.37894 -2.27978,-0.28105 -3.38635,-0.006 z m 4.98419,1.449 c -0.35487,0.11316 -0.15296,0.64492 0.18758,0.49403 1.30564,-0.49486 3.04271,0.006 3.04271,0.006 0.34436,0.11658 0.50524,-0.41019 0.15451,-0.50591 -1.14322,-0.31525 -2.30906,-0.32846 -3.3848,0.006 z m -4.98419,-0.006 c -0.35455,0.0932 -0.19238,0.62603 0.15399,0.50591 0,0 1.73913,-0.50091 3.04478,-0.006 0.34054,0.15089 0.54245,-0.38087 0.18758,-0.49403 -1.13162,-0.37854 -2.27915,-0.27755 -3.38635,-0.006 z m 4.98419,1.449 c -0.33077,0.12514 -0.14318,0.62123 0.18758,0.4961 1.30564,-0.49486 3.04271,0.006 3.04271,0.006 0.33865,0.10301 0.49317,-0.40497 0.15451,-0.50798 -1.14321,-0.31525 -2.30906,-0.32846 -3.3848,0.006 z m -4.98419,-0.006 c -0.32114,0.11163 -0.17502,0.59314 0.15399,0.50746 0,0 1.73913,-0.50039 3.04478,-0.006 0.33073,0.12505 0.51831,-0.37104 0.18758,-0.4961 -1.13162,-0.37854 -2.27916,-0.27754 -3.38635,-0.006 z m -3.48868,3.69333 v 1.29656 c 0,0.20906 0.17503,0.29144 0.28525,0.29144 h 14.77533 c 0.15373,0 0.28525,-0.13152 0.28525,-0.28525 v -1.30275 z m 6.08593,2.11718 v 1.05833 h -1.05833 c -0.009,-5.3e-4 -0.0183,-5.3e-4 -0.0274,0 -0.35312,0.0183 -0.32573,0.54794 0.0274,0.52969 h 5.29115 c 0.35312,0 0.35312,-0.52969 0,-0.52969 h -1.05885 v -1.05833 z"/></g><text x="0" y="31.933334" fill="#000000" font-size="5px" font-weight="bold" font-family="'Helvetica Neue', Helvetica, Arial-Unicode, Arial, Sans-serif">Created by Taufik Ramadhan</text><text x="0" y="36.933334" fill="#000000" font-size="5px" font-weight="bold" font-family="'Helvetica Neue', Helvetica, Arial-Unicode, Arial, Sans-serif">from the Noun Project</text></svg>